<svg width="350" height="52" viewBox="0 0 350 52" fill="none" xmlns="http://www.w3.org/2000/svg">
<path d="M8.25329 52C4.89084 52 2.44542 51.0823 1.22271 48.9411C0.305681 47.4117 0 45.8823 0 44.3529C0 43.4353 1.86525e-05 42.8235 0.305696 41.9058C0.611372 41.2941 0.611363 40.3764 0.91704 39.7647C1.22272 39.1529 1.83407 38.5411 2.44542 38.5411C2.7511 38.5411 3.05677 38.5411 3.05677 38.847C3.05677 38.847 3.05677 38.847 3.05677 39.1529C2.75109 40.3764 2.44542 40.9882 2.44542 41.2941C2.13975 42.2117 2.13975 42.8235 2.13975 43.7411C2.13975 45.8823 2.7511 47.4117 4.27948 48.6353C5.19651 49.5529 6.7249 49.8588 8.86463 49.8588C10.6987 49.8588 12.5328 49.247 13.7555 48.0235C14.9782 46.8 16.2009 44.9647 16.5066 42.8235C16.8122 41.9058 16.8122 40.9882 16.8122 40.0705C16.8122 37.9294 16.2009 36.4 14.9782 34.8706C14.0611 33.647 12.8384 32.4235 11.3101 31.1999C8.55897 28.7529 6.72489 26.3058 6.11354 23.8588C5.80786 22.9411 5.80787 21.7176 5.80787 20.7999C5.80787 19.8823 5.80786 18.9646 6.11354 18.047C6.72489 14.9882 8.25328 12.5411 10.393 10.7058C12.5328 8.87053 15.2838 7.95288 18.0349 7.95288C20.786 7.95288 22.9258 8.87053 24.4541 10.3999C25.3712 11.6235 25.9825 13.1529 25.9825 14.6823C25.9825 15.2941 25.9825 16.2117 25.6769 17.1294C25.6769 17.4352 25.3712 17.7411 25.3712 18.047C25.3712 18.3529 24.7598 18.3529 24.7598 18.3529C24.1485 18.3529 23.8428 18.047 23.8428 17.7411C23.8428 17.7411 23.8428 17.7411 23.8428 17.4352C24.1485 16.5176 24.1485 15.9058 24.1485 14.9882C24.1485 13.7646 23.8428 12.5411 22.9258 11.3176C22.0087 10.0941 20.4804 9.78817 18.3406 9.78817C16.8122 9.78817 15.5895 10.3999 14.3668 11.3176C13.1441 12.2352 12.2271 14.0705 11.9214 16.2117C11.6157 17.1294 11.6157 17.7411 11.6157 18.6588C11.6157 20.4941 12.2271 22.3293 13.1441 23.8588C14.0611 25.3882 15.2838 26.6117 16.8122 27.8352C18.3406 29.0588 19.5633 30.2823 20.4804 31.8117C21.7031 33.647 22.3144 35.7882 22.3144 37.9294C22.3144 38.847 22.3144 40.0706 22.0087 40.9882C21.3974 44.6588 19.5633 47.4117 16.8122 49.247C14.3668 51.0823 11.6157 52 8.25329 52Z" fill="url(#paint0_linear)"/>
<path d="M33.0129 48.3294C31.4846 48.3294 30.5675 48.0235 29.3448 47.1059C27.8164 45.8823 27.2051 43.7411 27.2051 40.6823C27.2051 38.847 27.5108 36.7058 28.1221 33.9529C28.7335 30.8941 29.9562 26.6117 31.1789 21.4117C31.1789 21.1058 31.4846 21.1058 31.4846 20.7999C31.4846 20.494 31.7902 20.494 32.0959 20.494H35.764C36.0697 20.494 36.3754 20.7999 36.3754 21.1058C36.3754 21.1058 36.3754 21.1058 36.3754 21.4117C34.847 26.6117 33.93 30.5882 33.3186 33.647C32.7073 36.4 32.4016 38.847 32.4016 41.2941V41.6C32.4016 44.3529 33.3186 45.8823 34.5413 45.8823C35.4584 45.8823 36.6811 45.2706 38.2094 44.3529C40.6549 42.5176 42.7946 39.1529 45.24 34.8705C47.3797 30.8941 49.5195 26.3058 51.3535 21.4117C51.3535 21.1058 51.6592 20.7999 52.2706 20.7999H55.9387C56.2444 20.7999 56.2444 20.7999 56.2444 21.1058V21.4117C56.2444 21.7176 56.2444 21.7176 56.2444 21.7176C54.4103 27.5293 53.1876 32.4235 52.2706 36.4C51.6592 38.847 51.3535 40.9882 51.3535 42.5176C51.3535 42.8235 51.3535 43.1294 51.3535 43.4353C51.3535 44.6588 51.9649 45.2705 52.5763 45.2705C53.4933 45.2705 54.4103 44.6588 55.3274 43.7411C55.9387 43.1294 56.8557 42.5176 57.4671 41.6C60.8295 37.9294 63.5806 33.3411 66.6374 28.1411C66.9431 27.8352 66.9431 27.5293 67.5544 27.5293C67.8601 27.5293 68.1658 27.8352 68.1658 28.1411C68.1658 28.1411 68.1658 28.1411 68.1658 28.447C68.1658 28.7529 67.2487 30.2823 65.7203 32.7293C63.5806 36.3999 61.1352 39.7647 58.6898 42.5176C55.633 45.8823 52.8819 47.7176 50.4365 47.7176C49.5195 47.7176 48.9081 47.4117 48.2968 47.1059C47.0741 46.1882 46.1571 44.3529 46.1571 41.9058C46.1571 41.6 46.1571 41.2941 46.1571 40.9882C46.1571 39.4588 46.4627 37.6235 47.0741 35.7882L47.6854 33.0352C45.24 38.2352 42.4889 42.2117 39.4321 44.9647C37.9038 46.4941 36.0697 47.4117 33.93 48.0235C33.93 48.3294 33.3186 48.3294 33.0129 48.3294Z" fill="url(#paint1_linear)"/>
<path d="M72.1398 49.553C68.4717 49.553 66.0262 48.3295 64.8035 45.5766C63.8865 44.0472 63.5808 42.2119 63.5808 40.3766C63.5808 39.153 63.5808 37.9295 63.8865 36.4001C64.4979 32.7295 66.0262 29.3648 67.8603 26.6118C70 23.553 72.4454 21.4118 75.1965 20.1883C76.4192 19.5765 77.3363 19.5765 78.559 19.5765C80.6987 19.5765 82.2271 20.1883 83.4498 21.4118C84.3668 22.3295 84.6725 23.553 84.6725 24.7765C84.6725 25.3883 84.6725 25.6942 84.3668 26.306C84.0612 28.1413 82.8384 29.9766 81.0044 31.8119C79.1703 33.6472 77.0306 34.2589 74.2795 34.2589C72.4454 34.2589 70.9171 33.6471 69.6943 32.7295C69.3887 33.953 68.7773 35.1766 68.7773 36.4001C68.4716 37.6236 68.4717 39.153 68.4717 40.3766C68.4717 40.9883 68.4717 41.2942 68.4717 41.6001C68.4717 43.1295 69.083 44.353 69.6943 45.2707C70.6114 46.8001 71.8341 47.4119 73.6682 47.4119C76.1136 47.4119 78.559 46.4942 81.0044 44.6589C84.6725 41.906 88.6463 36.4001 92.6201 28.753C92.9258 28.4472 92.9258 28.1413 93.5372 28.1413C93.8428 28.1413 94.1485 28.4472 94.1485 28.753C94.1485 28.753 94.1485 28.753 94.1485 29.0589C94.1485 29.3648 92.9258 31.2001 91.0917 34.5648C88.6463 38.8471 85.8952 42.2119 83.1441 44.6589C79.7817 48.0236 76.1136 49.553 72.1398 49.553ZM75.1965 32.4236C76.7249 32.4236 77.9476 32.1177 79.476 31.2001C81.3101 29.9766 82.5328 28.4471 82.8385 26.0001C82.8385 25.6942 82.8385 25.0824 82.8385 24.7765C82.8385 23.8589 82.5328 22.9412 81.9214 22.3295C81.3101 21.4118 80.393 21.106 79.476 21.106C77.6419 21.106 75.8079 22.3295 73.9738 25.0824C72.7511 26.9177 71.5284 28.753 70.6114 30.8942C72.1398 31.8119 73.6682 32.4236 75.1965 32.4236Z" fill="url(#paint2_linear)"/>
<path d="M97.2051 48.3295C95.9824 48.3295 94.7597 48.0236 93.8427 47.4118C91.3973 45.8824 90.1746 42.8236 90.1746 38.5412C90.1746 36.0942 90.4802 33.3412 91.0916 29.9765C92.0086 25.3883 93.537 20.4941 95.6767 15.9059C97.5108 11.6235 99.6506 7.95295 102.096 4.89412C104.541 1.52941 107.292 0 109.738 0C110.961 0 111.878 0.30588 112.489 0.917646C113.1 1.52941 113.406 2.44705 113.406 3.67058C113.406 4.28235 113.406 4.89412 113.1 5.50589C112.489 7.95295 110.961 11.3177 108.21 15.2941C105.764 18.6588 103.319 21.7177 100.568 24.7765C99.3449 26 98.1221 27.2235 96.8994 28.4471L96.5938 30.2824C95.9824 33.3412 95.6767 36.4 95.6767 39.153C95.6767 39.7647 95.6767 40.6824 95.6767 41.2942C95.6767 43.1295 96.2881 44.353 96.8994 45.2706C97.5108 46.1883 98.1222 46.4942 99.0392 46.4942C99.9562 46.4942 101.179 46.1883 102.402 45.2706C105.153 43.4353 107.904 40.0706 110.655 35.4824C112.183 33.0353 113.406 30.8941 114.323 29.3647C114.629 29.0589 114.629 28.753 115.24 28.753C115.546 28.753 115.851 29.0589 115.851 29.3647C115.851 29.3647 115.851 29.3647 115.851 29.6706C115.851 29.9765 114.934 31.5059 113.406 33.953C111.266 37.9294 108.821 40.9883 106.375 43.7412C102.707 46.4942 99.6505 48.3295 97.2051 48.3295ZM97.2051 25.6942C99.3449 23.553 101.485 21.1059 103.624 18.6588C106.375 14.9882 108.821 11.6235 110.349 8.56471C110.961 7.64707 111.266 6.42353 111.572 5.50589C111.572 4.89412 111.878 4.28236 111.878 3.97647C111.878 2.75294 111.572 2.14117 110.655 2.14117C110.349 2.14117 109.738 2.14118 109.432 2.44706C108.515 3.05882 107.598 3.97647 106.681 5.2C104.847 7.64706 103.319 10.4 101.79 13.7647C99.9562 17.7412 98.4278 21.7177 97.2051 25.6942Z" fill="url(#paint3_linear)"/>
<path d="M119.214 49.553C115.546 49.553 113.1 48.3295 111.878 45.5766C110.961 44.0472 110.655 42.2119 110.655 40.3766C110.655 39.153 110.655 37.9295 110.961 36.4001C111.572 32.7295 113.1 29.3648 114.935 26.6118C117.074 23.553 119.52 21.4118 122.271 20.1883C123.493 19.5765 124.41 19.5765 125.633 19.5765C127.773 19.5765 129.301 20.1883 130.524 21.4118C131.441 22.3295 131.747 23.553 131.747 24.7765C131.747 25.3883 131.747 25.6942 131.441 26.306C131.135 28.1413 129.913 29.9766 128.079 31.8119C126.245 33.6472 124.105 34.2589 121.354 34.2589C119.52 34.2589 117.991 33.6471 116.769 32.7295C116.463 33.953 115.852 35.1766 115.852 36.4001C115.546 37.6236 115.546 39.153 115.546 40.3766C115.546 40.9883 115.546 41.2942 115.546 41.6001C115.546 43.1295 116.157 44.353 116.769 45.2707C117.686 46.8001 118.908 47.4119 120.742 47.4119C123.188 47.4119 125.633 46.4942 128.079 44.6589C131.747 41.906 135.72 36.4001 139.694 28.753C140 28.4472 140 28.1413 140.611 28.1413C140.917 28.1413 141.223 28.4472 141.223 28.753C141.223 28.753 141.223 28.753 141.223 29.0589C141.223 29.3648 140 31.2001 138.166 34.5648C135.72 38.8471 132.969 42.2119 130.218 44.6589C126.856 48.0236 123.188 49.553 119.214 49.553ZM122.271 32.4236C123.799 32.4236 125.022 32.1177 126.55 31.2001C128.384 29.9766 129.607 28.4471 129.913 26.0001C129.913 25.6942 129.913 25.0824 129.913 24.7765C129.913 23.8589 129.607 22.9412 128.996 22.3295C128.384 21.4118 127.467 21.106 126.55 21.106C124.716 21.106 122.882 22.3295 121.048 25.0824C119.825 26.9177 118.603 28.753 117.686 30.8942C119.214 31.8119 120.742 32.4236 122.271 32.4236Z" fill="url(#paint4_linear)"/>
<path d="M159.258 48.0236C157.729 48.0236 156.812 47.7178 155.895 47.106C154.978 46.4942 154.673 45.5766 154.673 44.353C154.673 44.0472 154.673 43.4354 154.673 43.1295C154.673 42.5177 154.673 41.6001 154.978 40.6824C155.284 38.5413 156.201 35.7883 157.424 32.7295C158.952 28.753 159.869 25.6942 160.175 23.8589C160.48 22.9413 160.48 22.3295 160.48 21.7177V21.4119C160.48 20.8001 160.175 20.4942 159.869 20.4942C159.258 20.4942 158.952 20.8001 158.341 21.106C154.673 23.8589 149.782 31.506 143.668 44.353C143.363 44.6589 143.363 44.9648 142.751 44.9648H139.083C138.777 44.9648 138.472 44.9648 138.472 44.6589C138.166 42.8236 137.86 40.9883 137.86 39.153C137.86 37.6236 138.166 35.4824 138.472 33.0354C138.777 30.5883 139.083 28.753 139.389 27.8354C140.306 23.553 140.917 21.4119 141.223 21.106C141.528 21.106 141.528 20.8001 141.834 20.8001H145.502C145.808 20.8001 145.808 20.8001 145.808 21.106V21.4119V21.7177C145.197 23.8589 144.585 26.0001 144.28 28.1413C143.668 30.2824 143.363 32.4236 143.057 34.8707C142.751 36.4001 142.751 37.9295 142.751 39.4589C142.751 40.3766 142.751 41.2942 142.751 41.906C146.419 34.8707 149.476 29.0589 152.227 25.0824C155.284 20.4942 158.646 18.353 161.397 18.353C162.314 18.353 163.232 18.6589 163.843 19.2707C164.454 19.8824 164.76 20.8001 164.76 22.0236C164.76 22.6354 164.76 23.2472 164.454 24.1648C164.149 26.306 163.232 29.0589 161.703 32.7295C160.175 36.4001 159.563 39.153 158.952 41.2942C158.646 42.5177 158.646 43.4354 158.646 44.353C158.646 45.5766 158.952 46.4942 159.869 46.4942C160.786 46.4942 161.703 45.8824 162.62 44.9648C165.066 42.8236 167.511 39.7648 169.956 35.1766C171.485 32.7295 172.402 30.8942 173.319 29.3648C173.625 29.0589 173.625 28.753 174.236 28.753C174.542 28.753 174.847 29.0589 174.847 29.3648C174.847 29.3648 174.847 29.3648 174.847 29.6707C174.847 29.9766 174.847 29.9766 174.542 30.5883C174.236 31.2001 173.93 31.506 173.625 32.1177C171.485 35.7883 169.651 38.8472 167.511 41.6001C165.371 44.353 163.537 46.4942 161.397 47.7177C161.397 47.7177 160.175 48.0236 159.258 48.0236Z" fill="url(#paint5_linear)"/>
<path d="M193.494 49.553C189.825 49.553 187.38 48.3295 186.157 45.5766C185.24 44.0472 184.935 42.2119 184.935 40.3766C184.935 39.153 184.935 37.9295 185.24 36.4001C185.852 32.7295 187.38 29.3648 189.214 26.6118C191.354 23.553 193.799 21.4118 196.55 20.1883C197.773 19.5765 198.69 19.5765 199.913 19.5765C202.052 19.5765 203.581 20.1883 204.803 21.4118C205.721 22.3295 206.026 23.553 206.026 24.7765C206.026 25.3883 206.026 25.6942 205.721 26.306C205.415 28.1413 204.192 29.9766 202.358 31.8119C200.524 33.3413 198.384 34.2589 195.633 34.2589C193.799 34.2589 192.271 33.6471 191.048 32.7295C190.742 33.953 190.131 35.1766 190.131 36.4001C189.825 37.6236 189.825 39.153 189.825 40.3766C189.825 40.9883 189.825 41.2942 189.825 41.6001C189.825 43.1295 190.437 44.353 191.048 45.2707C191.965 46.8001 193.188 47.4119 195.022 47.4119C197.467 47.4119 199.913 46.4942 202.358 44.6589C206.026 41.906 210 36.4001 213.974 28.753C214.279 28.4472 214.279 28.1413 214.891 28.1413C215.196 28.1413 215.502 28.4472 215.502 28.753C215.502 28.753 215.502 28.753 215.502 29.0589C215.502 29.3648 214.279 31.2001 212.445 34.5648C210 38.8471 207.249 42.2119 204.498 44.6589C201.135 48.0236 197.467 49.553 193.494 49.553ZM196.55 32.4236C198.079 32.4236 199.301 32.1177 200.83 31.2001C202.664 29.9766 203.886 28.4471 204.192 26.0001C204.192 25.6942 204.192 25.0824 204.192 24.7765C204.192 23.8589 203.886 22.9412 203.275 22.3295C202.664 21.4118 201.747 21.106 200.83 21.106C198.996 21.106 197.162 22.3295 195.328 25.0824C194.105 26.9177 192.882 28.753 191.965 30.8942C193.494 31.8119 195.022 32.4236 196.55 32.4236Z" fill="url(#paint6_linear)"/>
<path d="M240.873 52C238.428 52 236.288 51.3882 234.454 49.8588C232.926 48.6352 232.009 47.1058 231.397 45.2705C230.786 43.4352 230.48 41.6 230.48 39.4588C230.48 39.4588 230.48 38.5411 230.48 37.6235C230.48 36.3999 230.786 34.8705 231.092 32.7294C232.314 27.2235 234.148 22.3294 236.594 18.047C239.345 13.4588 242.402 10.3999 246.07 8.87053C247.292 8.25876 248.515 7.95288 249.738 7.95288C251.266 7.95288 252.489 8.25876 253.406 8.87053C255.546 10.3999 256.768 12.847 256.768 16.2117C256.768 17.7411 256.463 19.5764 256.157 21.4117C255.851 22.3294 255.546 22.6353 254.629 22.6353C254.017 22.6353 253.712 22.3294 253.712 21.7176V21.4117C254.017 19.2705 254.323 17.7411 254.323 15.9058C254.323 14.6823 254.323 13.4588 254.017 12.5411C253.712 11.6235 253.406 11.0117 252.489 10.7058C252.183 10.3999 251.572 10.3999 251.266 10.3999C248.209 10.3999 245.458 12.5411 243.013 16.5176C240.262 21.1058 238.122 26.6117 236.899 32.7294C236.288 34.8705 236.288 37.0117 236.288 39.1529C236.288 40.6823 236.288 42.2117 236.594 43.7411C237.205 46.4941 238.428 48.3294 240.262 49.5529C240.873 49.8588 241.79 50.1647 242.707 50.1647C244.541 50.1647 246.681 49.5529 248.515 48.0235C250.044 46.8 251.266 45.5764 252.489 43.7411C252.795 43.4352 253.1 43.1294 253.406 43.1294H253.712C254.017 43.4352 254.017 43.4352 254.017 43.7411C254.017 43.7411 254.017 43.7411 254.017 44.047C254.017 44.047 254.017 44.3529 253.712 44.3529C252.795 45.8823 251.572 47.1058 250.044 48.3294C248.515 49.5529 247.292 50.4705 245.764 51.0823C244.236 51.6941 242.402 52 240.873 52Z" fill="url(#paint7_linear)"/>
<path d="M282.14 48.0235C281.223 48.0235 280.306 47.7176 279.389 47.1059C277.86 45.8823 276.943 43.7411 276.943 40.3764C276.943 39.7646 276.943 39.4588 276.943 38.847C276.943 37.0117 277.555 34.8705 277.86 32.4235C278.166 31.1999 278.472 30.2823 278.777 29.0588C274.192 37.3176 270.218 42.8235 266.245 45.8823C264.716 46.8 263.493 47.4117 261.965 47.4117C260.131 47.4117 258.908 46.8 258.297 45.5764C257.686 44.3529 257.074 43.1294 257.074 41.5999V40.9882C257.074 39.4588 257.074 38.2352 257.38 37.0117C258.297 33.0352 259.825 29.3646 262.271 25.9999C263.799 23.8587 265.633 22.3293 268.079 21.1058C269.301 20.494 270.218 20.494 271.441 20.494C272.969 20.494 274.498 21.1058 276.026 22.0234C277.555 22.9411 278.472 24.1646 279.389 25.3881C280 24.1646 280.611 22.6352 281.223 21.4117C281.528 21.1058 281.834 20.7999 282.14 20.7999H285.808C286.113 20.7999 286.113 20.7999 286.113 21.1058V21.4117L285.808 22.0234C284.585 25.694 283.668 29.0588 283.057 32.1176C282.14 35.7882 281.834 38.847 281.834 41.2941C281.834 41.9058 281.834 42.2117 281.834 42.8235C281.834 44.9647 282.445 45.8823 283.668 45.8823C284.279 45.8823 285.196 45.5764 286.113 44.6588C289.476 41.9058 293.144 36.7058 297.118 28.7529C297.423 28.447 297.423 28.1411 298.035 28.1411C298.341 28.1411 298.646 28.447 298.646 28.7529C298.646 28.7529 298.646 28.7529 298.646 29.0588C298.646 29.3646 298.646 29.3646 298.341 29.6705C298.035 29.9764 298.035 30.2823 297.729 30.894C295.589 34.5646 293.45 37.9294 291.31 40.9882C287.948 45.5764 284.891 48.0235 282.14 48.0235ZM263.799 45.5764C264.41 45.5764 265.022 45.2705 265.939 44.6588C268.079 43.1294 270.218 40.6823 272.664 37.0117C274.803 33.9529 276.638 30.5882 278.472 27.2235C277.86 25.694 276.638 24.4705 275.415 23.5528C274.498 22.9411 273.581 22.6352 272.664 22.6352C271.135 22.6352 269.607 23.8587 267.773 26.3058C266.245 28.447 265.327 30.5882 264.105 33.0352C263.493 34.5646 263.188 35.7882 262.882 37.3176C262.576 38.847 262.271 40.3764 262.271 41.9058V42.5176C262.271 44.6588 262.882 45.5764 263.799 45.5764Z" fill="url(#paint8_linear)"/>
<path d="M298.952 48.0235C298.035 48.0235 297.423 47.7177 296.812 47.4118C295.589 46.4941 294.672 44.6588 294.672 42.2118C294.672 41.9059 294.672 41.6 294.672 40.9882C294.672 39.153 294.978 37.3176 295.589 35.4823C296.506 31.8118 297.729 27.2235 299.563 21.4117C299.869 21.1059 300.175 20.8 300.48 20.8H304.148C304.454 20.8 304.76 21.1059 304.76 21.4117C304.76 21.4117 304.76 21.4117 304.76 21.7176C302.62 28.1412 301.397 33.3412 300.48 37.3176C299.869 39.4588 299.869 41.6 299.869 43.1294C299.869 43.4353 299.869 43.7412 299.869 44.0471C299.869 45.2706 300.48 45.8824 301.092 45.8824C302.009 45.8824 302.926 45.5765 303.843 44.6588C305.982 43.1294 307.816 40.6823 309.956 37.6235C311.79 34.8706 313.624 31.8118 315.153 29.0588C315.458 28.7529 315.458 28.447 316.07 28.447C316.375 28.447 316.681 28.7529 316.681 29.0588C316.681 29.0588 316.681 29.0588 316.681 29.3647C316.681 29.6706 315.764 31.2 314.236 33.6471C312.096 37.3176 309.65 40.6824 307.205 43.4353C304.148 46.4941 301.397 48.0235 298.952 48.0235ZM303.843 18.047C303.231 18.047 302.62 17.7411 302.314 17.1294C302.009 16.8235 302.009 16.5176 302.009 16.2117C302.009 15.9059 302.009 15.9058 302.009 15.6C302.314 14.6823 302.62 14.0705 303.231 13.4588C303.843 12.847 304.454 12.5411 305.065 12.5411C305.677 12.5411 306.288 12.847 306.594 13.4588C306.899 13.7647 306.899 14.0705 306.899 14.3764C306.899 14.6823 306.899 14.6823 306.899 14.9882C306.594 15.9058 306.288 16.5176 305.677 17.1294C305.065 17.7411 304.454 18.047 303.843 18.047Z" fill="url(#paint9_linear)"/>
<path d="M320.044 49.553C317.598 49.553 315.459 48.6354 313.93 47.106C312.708 45.5766 311.791 43.4354 311.791 40.6824C311.791 39.4589 312.096 37.9295 312.402 36.0942C313.013 32.4236 314.542 29.0589 316.376 26.3059C318.515 23.2471 320.961 21.1059 323.712 19.8824C324.935 19.2706 326.157 19.2706 327.074 19.2706C329.214 19.2706 330.742 20.1883 331.66 22.0236C332.577 22.0236 333.494 22.3295 334.105 23.2471C335.022 24.1648 335.328 25.6942 335.328 27.5295C335.328 29.0589 335.022 30.5883 334.716 32.4236C334.105 35.1765 333.188 37.6236 331.66 40.3765C332.271 40.3765 332.577 40.3765 333.188 40.3765C333.494 40.3765 333.799 40.3765 334.105 40.3765C336.856 40.0707 339.301 38.8471 341.747 37.0118C344.498 34.5648 346.943 31.8118 348.472 28.753C348.777 28.4471 348.777 28.1412 349.389 28.1412C349.694 28.1412 350 28.4471 350 28.753C350 28.753 350 28.753 350 29.0589C350 29.3648 349.389 30.5883 348.472 31.8118C346.943 34.2589 345.109 36.0942 342.97 37.9295C340.218 40.0707 337.467 41.2942 334.411 41.6001C334.105 41.6001 333.799 41.6001 333.494 41.6001C332.882 41.6001 332.271 41.6001 331.354 41.2942C329.825 44.0471 327.686 46.1883 325.24 47.4118C323.406 48.9413 321.878 49.553 320.044 49.553ZM321.572 47.7177C322.795 47.7177 323.712 47.4118 324.629 46.8001C326.769 45.5765 328.603 43.7413 329.825 41.2942C327.991 40.6824 326.769 39.4589 325.852 37.9295C325.24 36.4001 324.629 34.8706 324.629 33.0353C324.629 31.8118 324.629 30.5883 324.935 29.0589C325.24 26.9177 326.157 25.0824 327.686 23.8589C328.297 23.2471 329.214 22.6353 330.131 22.0236C329.52 21.1059 328.908 20.8 327.991 20.8C325.852 20.8 323.712 22.6353 321.572 26.0001C319.738 29.0589 318.515 32.1177 317.598 35.7883C317.293 37.3177 316.987 38.8471 316.987 40.3765V40.9883C316.987 43.4354 317.598 45.2707 319.127 46.4942C320.044 47.4118 320.655 47.7177 321.572 47.7177ZM330.437 40.0707C331.66 37.6236 332.577 35.1765 333.188 32.4236C333.494 30.8942 333.799 29.3648 333.799 28.1412C333.799 27.2236 333.799 26.6118 333.494 26.0001C333.188 24.4706 332.577 23.8589 331.354 23.8589C330.743 23.8589 330.131 24.1648 329.52 24.4706C328.603 25.0824 327.991 26.0001 327.38 27.2236C327.074 28.1412 326.769 28.753 326.463 29.6706C326.157 30.8942 326.157 32.1177 326.157 33.3412C326.157 34.8707 326.463 36.4001 327.074 37.6236C327.686 38.5412 328.908 39.4589 330.437 40.0707Z" fill="url(#paint10_linear)"/>
<defs>
<linearGradient id="paint0_linear" x1="-0.0375983" y1="29.9642" x2="26.1837" y2="29.9642" gradientUnits="userSpaceOnUse">
<stop offset="0.00561792" stop-color="#CE8619"/>
<stop offset="0.2528" stop-color="#F8EE7C"/>
<stop offset="0.3284" stop-color="#F0DE6A"/>
<stop offset="0.4778" stop-color="#DBB73D"/>
<stop offset="0.5955" stop-color="#C9961A"/>
<stop offset="0.8143" stop-color="#EACD75"/>
<stop offset="0.8708" stop-color="#F2DC8E"/>
<stop offset="1" stop-color="#FFFAD2"/>
</linearGradient>
<linearGradient id="paint1_linear" x1="27.2849" y1="34.7362" x2="68.1214" y2="34.7362" gradientUnits="userSpaceOnUse">
<stop offset="0.00561792" stop-color="#CE8619"/>
<stop offset="0.2528" stop-color="#F8EE7C"/>
<stop offset="0.3284" stop-color="#F0DE6A"/>
<stop offset="0.4778" stop-color="#DBB73D"/>
<stop offset="0.5955" stop-color="#C9961A"/>
<stop offset="0.8143" stop-color="#EACD75"/>
<stop offset="0.8708" stop-color="#F2DC8E"/>
<stop offset="1" stop-color="#FFFAD2"/>
</linearGradient>
<linearGradient id="paint2_linear" x1="63.6083" y1="34.3332" x2="94.2356" y2="34.3332" gradientUnits="userSpaceOnUse">
<stop offset="0.00561792" stop-color="#CE8619"/>
<stop offset="0.2528" stop-color="#F8EE7C"/>
<stop offset="0.3284" stop-color="#F0DE6A"/>
<stop offset="0.4778" stop-color="#DBB73D"/>
<stop offset="0.5955" stop-color="#C9961A"/>
<stop offset="0.8143" stop-color="#EACD75"/>
<stop offset="0.8708" stop-color="#F2DC8E"/>
<stop offset="1" stop-color="#FFFAD2"/>
</linearGradient>
<linearGradient id="paint3_linear" x1="90.125" y1="24.0632" x2="115.11" y2="24.0632" gradientUnits="userSpaceOnUse">
<stop offset="0.00561792" stop-color="#CE8619"/>
<stop offset="0.2528" stop-color="#F8EE7C"/>
<stop offset="0.3284" stop-color="#F0DE6A"/>
<stop offset="0.4778" stop-color="#DBB73D"/>
<stop offset="0.5955" stop-color="#C9961A"/>
<stop offset="0.8143" stop-color="#EACD75"/>
<stop offset="0.8708" stop-color="#F2DC8E"/>
<stop offset="1" stop-color="#FFFAD2"/>
</linearGradient>
<linearGradient id="paint4_linear" x1="110.57" y1="34.3332" x2="141.198" y2="34.3332" gradientUnits="userSpaceOnUse">
<stop offset="0.00561792" stop-color="#CE8619"/>
<stop offset="0.2528" stop-color="#F8EE7C"/>
<stop offset="0.3284" stop-color="#F0DE6A"/>
<stop offset="0.4778" stop-color="#DBB73D"/>
<stop offset="0.5955" stop-color="#C9961A"/>
<stop offset="0.8143" stop-color="#EACD75"/>
<stop offset="0.8708" stop-color="#F2DC8E"/>
<stop offset="1" stop-color="#FFFAD2"/>
</linearGradient>
<linearGradient id="paint5_linear" x1="138.242" y1="33.2174" x2="175.855" y2="33.2174" gradientUnits="userSpaceOnUse">
<stop offset="0.00561792" stop-color="#CE8619"/>
<stop offset="0.2528" stop-color="#F8EE7C"/>
<stop offset="0.3284" stop-color="#F0DE6A"/>
<stop offset="0.4778" stop-color="#DBB73D"/>
<stop offset="0.5955" stop-color="#C9961A"/>
<stop offset="0.8143" stop-color="#EACD75"/>
<stop offset="0.8708" stop-color="#F2DC8E"/>
<stop offset="1" stop-color="#FFFAD2"/>
</linearGradient>
<linearGradient id="paint6_linear" x1="184.963" y1="34.3332" x2="215.591" y2="34.3332" gradientUnits="userSpaceOnUse">
<stop offset="0.00561792" stop-color="#CE8619"/>
<stop offset="0.2528" stop-color="#F8EE7C"/>
<stop offset="0.3284" stop-color="#F0DE6A"/>
<stop offset="0.4778" stop-color="#DBB73D"/>
<stop offset="0.5955" stop-color="#C9961A"/>
<stop offset="0.8143" stop-color="#EACD75"/>
<stop offset="0.8708" stop-color="#F2DC8E"/>
<stop offset="1" stop-color="#FFFAD2"/>
</linearGradient>
<linearGradient id="paint7_linear" x1="230.287" y1="29.9776" x2="256.723" y2="29.9776" gradientUnits="userSpaceOnUse">
<stop offset="0.00561792" stop-color="#CE8619"/>
<stop offset="0.2528" stop-color="#F8EE7C"/>
<stop offset="0.3284" stop-color="#F0DE6A"/>
<stop offset="0.4778" stop-color="#DBB73D"/>
<stop offset="0.5955" stop-color="#C9961A"/>
<stop offset="0.8143" stop-color="#EACD75"/>
<stop offset="0.8708" stop-color="#F2DC8E"/>
<stop offset="1" stop-color="#FFFAD2"/>
</linearGradient>
<linearGradient id="paint8_linear" x1="257.261" y1="34.4808" x2="298.93" y2="34.4808" gradientUnits="userSpaceOnUse">
<stop offset="0.00561792" stop-color="#CE8619"/>
<stop offset="0.2528" stop-color="#F8EE7C"/>
<stop offset="0.3284" stop-color="#F0DE6A"/>
<stop offset="0.4778" stop-color="#DBB73D"/>
<stop offset="0.5955" stop-color="#C9961A"/>
<stop offset="0.8143" stop-color="#EACD75"/>
<stop offset="0.8708" stop-color="#F2DC8E"/>
<stop offset="1" stop-color="#FFFAD2"/>
</linearGradient>
<linearGradient id="paint9_linear" x1="294.873" y1="30.435" x2="316.635" y2="30.435" gradientUnits="userSpaceOnUse">
<stop offset="0.00561792" stop-color="#CE8619"/>
<stop offset="0.2528" stop-color="#F8EE7C"/>
<stop offset="0.3284" stop-color="#F0DE6A"/>
<stop offset="0.4778" stop-color="#DBB73D"/>
<stop offset="0.5955" stop-color="#C9961A"/>
<stop offset="0.8143" stop-color="#EACD75"/>
<stop offset="0.8708" stop-color="#F2DC8E"/>
<stop offset="1" stop-color="#FFFAD2"/>
</linearGradient>
<linearGradient id="paint10_linear" x1="312.068" y1="34.3332" x2="350.083" y2="34.3332" gradientUnits="userSpaceOnUse">
<stop offset="0.00561792" stop-color="#CE8619"/>
<stop offset="0.2528" stop-color="#F8EE7C"/>
<stop offset="0.3284" stop-color="#F0DE6A"/>
<stop offset="0.4778" stop-color="#DBB73D"/>
<stop offset="0.5955" stop-color="#C9961A"/>
<stop offset="0.8143" stop-color="#EACD75"/>
<stop offset="0.8708" stop-color="#F2DC8E"/>
<stop offset="1" stop-color="#FFFAD2"/>
</linearGradient>
</defs>
</svg>
